<svg width="201" height="33" viewBox="0 0 201 33" fill="none" xmlns="http://www.w3.org/2000/svg">
<path d="M109.202 13.4929L108.224 13.7372C107.909 12.7192 107.466 11.8743 106.896 11.2024C106.336 10.5204 105.649 10.0114 104.835 9.67543C104.02 9.32931 103.073 9.15625 101.994 9.15625C100.121 9.15625 98.6044 9.63471 97.4439 10.5916C96.2834 11.5384 95.7031 12.7905 95.7031 14.348C95.7031 15.5798 96.0951 16.613 96.8789 17.4478C97.6729 18.2826 98.8691 18.8984 100.467 19.2955L104.132 20.2116C105.853 20.6392 107.156 21.362 108.041 22.38C108.937 23.398 109.385 24.6297 109.385 26.0753C109.385 27.3478 109.049 28.4676 108.377 29.4347C107.715 30.4018 106.799 31.1551 105.629 31.6946C104.458 32.224 103.104 32.4886 101.567 32.4886C99.4799 32.4886 97.7747 31.9796 96.4513 30.9616C95.128 29.9437 94.2678 28.4981 93.8707 26.625L94.848 26.3807C95.1941 28.04 95.9322 29.3125 97.0621 30.1982C98.2023 31.0736 99.7038 31.5114 101.567 31.5114C103.603 31.5114 105.252 31.0125 106.514 30.0149C107.777 29.0173 108.408 27.7041 108.408 26.0753C108.408 24.8639 108.031 23.8408 107.278 23.006C106.524 22.1713 105.394 21.5656 103.888 21.1889L100.223 20.2727C98.4212 19.8248 97.052 19.0919 96.1154 18.0739C95.189 17.0559 94.7259 15.8139 94.7259 14.348C94.7259 13.1162 95.0312 12.0423 95.642 11.1261C96.263 10.1997 97.1181 9.47692 98.2074 8.95774C99.3068 8.43857 100.569 8.17898 101.994 8.17898C103.806 8.17898 105.318 8.62689 106.529 9.52273C107.741 10.4084 108.632 11.7318 109.202 13.4929Z" fill="white"/>
<path d="M117.884 8.54545V9.52273H108.6V8.54545H117.884ZM112.02 2.92614H112.998V27.0526C112.998 27.9688 113.201 28.7577 113.608 29.4194C114.016 30.0709 114.555 30.5748 115.227 30.9311C115.899 31.2772 116.622 31.4503 117.395 31.4503C117.691 31.4503 117.96 31.4248 118.205 31.3739C118.459 31.323 118.719 31.2467 118.983 31.1449L119.289 32.0611C118.983 32.1731 118.683 32.2596 118.388 32.3207C118.093 32.3919 117.762 32.4276 117.395 32.4276C116.438 32.4276 115.548 32.2087 114.723 31.771C113.909 31.3332 113.252 30.7122 112.753 29.908C112.265 29.1038 112.02 28.152 112.02 27.0526V2.92614Z" fill="white"/>
<path d="M134.846 24.304V8.54545H135.824V32H134.846V28.2741H134.724C134.175 29.4957 133.269 30.473 132.006 31.206C130.754 31.9389 129.319 32.3054 127.7 32.3054C126.132 32.3054 124.748 31.9644 123.547 31.2823C122.345 30.6003 121.404 29.6586 120.722 28.4574C120.04 27.2562 119.699 25.8717 119.699 24.304V8.54545H120.676V24.304C120.676 26.3807 121.327 28.0706 122.631 29.3736C123.934 30.6766 125.623 31.3281 127.7 31.3281C129.085 31.3281 130.311 31.0278 131.38 30.4272C132.459 29.8266 133.304 28.9969 133.915 27.9382C134.536 26.8795 134.846 25.6681 134.846 24.304Z" fill="white"/>
<path d="M145.968 32.4886C144.115 32.4886 142.512 31.9593 141.158 30.9006C139.804 29.8317 138.761 28.381 138.028 26.5487C137.295 24.7163 136.928 22.6447 136.928 20.3338C136.928 18.0331 137.3 15.9666 138.043 14.1342C138.786 12.3018 139.835 10.8512 141.189 9.78232C142.543 8.71342 144.136 8.17898 145.968 8.17898C147.21 8.17898 148.355 8.43857 149.404 8.95774C150.452 9.46674 151.363 10.1997 152.137 11.1566C152.911 12.1033 153.501 13.2282 153.908 14.5313H154.031V0.727273H155.008V32H154.031V26.1364H153.908C153.481 27.4292 152.885 28.5541 152.122 29.511C151.358 30.4577 150.452 31.1907 149.404 31.7099C148.365 32.229 147.22 32.4886 145.968 32.4886ZM145.968 31.5114C147.627 31.5114 149.058 31.0227 150.259 30.0455C151.47 29.058 152.402 27.7244 153.053 26.0447C153.705 24.3549 154.031 22.4512 154.031 20.3338C154.031 18.2164 153.7 16.3178 153.038 14.6381C152.387 12.9483 151.455 11.6147 150.244 10.6374C149.042 9.64998 147.617 9.15625 145.968 9.15625C144.319 9.15625 142.889 9.64998 141.677 10.6374C140.476 11.6147 139.545 12.9483 138.883 14.6381C138.231 16.3178 137.906 18.2164 137.906 20.3338C137.906 22.4512 138.231 24.3549 138.883 26.0447C139.534 27.7244 140.461 29.058 141.662 30.0455C142.873 31.0227 144.309 31.5114 145.968 31.5114Z" fill="white"/>
<path d="M158.35 32V8.54545H159.327V32H158.35ZM158.838 4.26989C158.573 4.26989 158.344 4.17318 158.151 3.97976C157.958 3.78634 157.861 3.55729 157.861 3.29261C157.861 3.02793 157.958 2.79889 158.151 2.60547C158.344 2.41205 158.573 2.31534 158.838 2.31534C159.103 2.31534 159.332 2.41205 159.525 2.60547C159.719 2.79889 159.815 3.02793 159.815 3.29261C159.815 3.55729 159.719 3.78634 159.525 3.97976C159.332 4.17318 159.103 4.26989 158.838 4.26989Z" fill="white"/>
<path d="M170.261 32.4886C168.419 32.4886 166.765 31.9593 165.299 30.9006C163.833 29.8317 162.672 28.381 161.817 26.5487C160.972 24.7061 160.55 22.6345 160.55 20.3338C160.55 18.023 160.972 15.9513 161.817 14.119C162.672 12.2866 163.833 10.841 165.299 9.78232C166.765 8.71342 168.419 8.17898 170.261 8.17898C172.104 8.17898 173.753 8.71342 175.209 9.78232C176.675 10.8512 177.835 12.3018 178.69 14.1342C179.545 15.9666 179.973 18.0331 179.973 20.3338C179.973 22.6345 179.545 24.7061 178.69 26.5487C177.845 28.381 176.69 29.8317 175.224 30.9006C173.758 31.9593 172.104 32.4886 170.261 32.4886ZM170.261 31.5114C171.921 31.5114 173.407 31.0227 174.72 30.0455C176.044 29.0682 177.087 27.7346 177.851 26.0447C178.614 24.3549 178.996 22.4512 178.996 20.3338C178.996 18.2164 178.609 16.3178 177.835 14.6381C177.072 12.9483 176.033 11.6147 174.72 10.6374C173.407 9.64998 171.921 9.15625 170.261 9.15625C168.612 9.15625 167.126 9.64998 165.803 10.6374C164.489 11.6147 163.446 12.9483 162.672 14.6381C161.909 16.3178 161.527 18.2164 161.527 20.3338C161.527 22.4512 161.909 24.3549 162.672 26.0447C163.436 27.7346 164.474 29.0682 165.787 30.0455C167.111 31.0227 168.602 31.5114 170.261 31.5114Z" fill="white"/>
<path d="M195.099 13.4929L194.122 13.7372C193.806 12.7192 193.364 11.8743 192.793 11.2024C192.234 10.5204 191.546 10.0114 190.732 9.67543C189.918 9.32931 188.971 9.15625 187.892 9.15625C186.019 9.15625 184.502 9.63471 183.341 10.5916C182.181 11.5384 181.601 12.7905 181.601 14.348C181.601 15.5798 181.993 16.613 182.776 17.4478C183.57 18.2826 184.767 18.8984 186.365 19.2955L190.03 20.2116C191.75 20.6392 193.053 21.362 193.939 22.38C194.835 23.398 195.282 24.6297 195.282 26.0753C195.282 27.3478 194.947 28.4676 194.275 29.4347C193.613 30.4018 192.697 31.1551 191.526 31.6946C190.355 32.224 189.001 32.4886 187.464 32.4886C185.377 32.4886 183.672 31.9796 182.349 30.9616C181.026 29.9437 180.165 28.4981 179.768 26.625L180.746 26.3807C181.092 28.04 181.83 29.3125 182.96 30.1982C184.1 31.0736 185.601 31.5114 187.464 31.5114C189.5 31.5114 191.149 31.0125 192.412 30.0149C193.674 29.0173 194.305 27.7041 194.305 26.0753C194.305 24.8639 193.929 23.8408 193.175 23.006C192.422 22.1713 191.292 21.5656 189.785 21.1889L186.121 20.2727C184.319 19.8248 182.95 19.0919 182.013 18.0739C181.087 17.0559 180.623 15.8139 180.623 14.348C180.623 13.1162 180.929 12.0423 181.54 11.1261C182.161 10.1997 183.016 9.47692 184.105 8.95774C185.204 8.43857 186.467 8.17898 187.892 8.17898C189.704 8.17898 191.216 8.62689 192.427 9.52273C193.638 10.4084 194.529 11.7318 195.099 13.4929Z" fill="white"/>
<path d="M0.875 32V0H4.5625V11.8125H4.875C5.14583 11.3958 5.52083 10.8646 6 10.2188C6.48958 9.5625 7.1875 8.97917 8.09375 8.46875C9.01042 7.94792 10.25 7.6875 11.8125 7.6875C13.8333 7.6875 15.6146 8.19271 17.1562 9.20312C18.6979 10.2135 19.901 11.6458 20.7656 13.5C21.6302 15.3542 22.0625 17.5417 22.0625 20.0625C22.0625 22.6042 21.6302 24.8073 20.7656 26.6719C19.901 28.526 18.7031 29.9635 17.1719 30.9844C15.6406 31.9948 13.875 32.5 11.875 32.5C10.3333 32.5 9.09896 32.2448 8.17188 31.7344C7.24479 31.2135 6.53125 30.625 6.03125 29.9688C5.53125 29.3021 5.14583 28.75 4.875 28.3125H4.4375V32H0.875ZM4.5 20C4.5 21.8125 4.76562 23.4115 5.29688 24.7969C5.82813 26.1719 6.60417 27.25 7.625 28.0312C8.64583 28.8021 9.89583 29.1875 11.375 29.1875C12.9167 29.1875 14.2031 28.7813 15.2344 27.9688C16.276 27.1458 17.0573 26.0417 17.5781 24.6562C18.1094 23.2604 18.375 21.7083 18.375 20C18.375 18.3125 18.1146 16.7917 17.5938 15.4375C17.0833 14.0729 16.3073 12.9948 15.2656 12.2031C14.2344 11.401 12.9375 11 11.375 11C9.875 11 8.61458 11.3802 7.59375 12.1406C6.57292 12.8906 5.80208 13.9427 5.28125 15.2969C4.76042 16.6406 4.5 18.2083 4.5 20Z" fill="white"/>
<path d="M21.5431 32V8H25.1056V11.625H25.3556C25.7931 10.4375 26.5848 9.47396 27.7306 8.73437C28.8765 7.99479 30.1681 7.625 31.6056 7.625C31.8765 7.625 32.215 7.63021 32.6213 7.64062C33.0275 7.65104 33.3348 7.66667 33.5431 7.6875V11.4375C33.4181 11.4062 33.1317 11.3594 32.6838 11.2969C32.2462 11.224 31.7827 11.1875 31.2931 11.1875C30.1265 11.1875 29.0848 11.4323 28.1681 11.9219C27.2619 12.401 26.5431 13.0677 26.0119 13.9219C25.491 14.7656 25.2306 15.7292 25.2306 16.8125V32H21.5431Z" fill="white"/>
<path d="M38.8167 32.5625C37.2959 32.5625 35.9157 32.276 34.6761 31.7031C33.4365 31.1198 32.4521 30.2813 31.723 29.1875C30.9938 28.0833 30.6292 26.75 30.6292 25.1875C30.6292 23.8125 30.9001 22.6979 31.4417 21.8438C31.9834 20.9792 32.7073 20.3021 33.6136 19.8125C34.5198 19.3229 35.5198 18.9583 36.6136 18.7188C37.7178 18.4688 38.8271 18.2708 39.9417 18.125C41.4001 17.9375 42.5823 17.7969 43.4886 17.7031C44.4053 17.599 45.0719 17.4271 45.4886 17.1875C45.9157 16.9479 46.1292 16.5313 46.1292 15.9375V15.8125C46.1292 14.2708 45.7073 13.0729 44.8636 12.2188C44.0303 11.3646 42.7646 10.9375 41.0667 10.9375C39.3063 10.9375 37.9261 11.3229 36.9261 12.0938C35.9261 12.8646 35.223 13.6875 34.8167 14.5625L31.3167 13.3125C31.9417 11.8542 32.7751 10.7188 33.8167 9.90625C34.8688 9.08333 36.0146 8.51042 37.2542 8.1875C38.5042 7.85417 39.7334 7.6875 40.9417 7.6875C41.7126 7.6875 42.598 7.78125 43.598 7.96875C44.6084 8.14583 45.5823 8.51562 46.5198 9.07812C47.4678 9.64063 48.2542 10.4896 48.8792 11.625C49.5042 12.7604 49.8167 14.2812 49.8167 16.1875V32H46.1292V28.75H45.9417C45.6917 29.2708 45.2751 29.8281 44.6917 30.4219C44.1084 31.0156 43.3323 31.5208 42.3636 31.9375C41.3948 32.3542 40.2126 32.5625 38.8167 32.5625ZM39.3792 29.25C40.8376 29.25 42.0667 28.9635 43.0667 28.3906C44.0771 27.8177 44.8376 27.0781 45.348 26.1719C45.8688 25.2656 46.1292 24.3125 46.1292 23.3125V19.9375C45.973 20.125 45.6292 20.2969 45.098 20.4531C44.5771 20.599 43.973 20.7292 43.2855 20.8438C42.6084 20.9479 41.9469 21.0417 41.3011 21.125C40.6657 21.1979 40.1501 21.2604 39.7542 21.3125C38.7959 21.4375 37.9001 21.6406 37.0667 21.9219C36.2438 22.1927 35.5771 22.6042 35.0667 23.1562C34.5667 23.6979 34.3167 24.4375 34.3167 25.375C34.3167 26.6562 34.7907 27.625 35.7386 28.2812C36.6969 28.9271 37.9105 29.25 39.3792 29.25Z" fill="white"/>
<path d="M54.0747 17.5625V32H50.3872V8H53.9497V11.75H54.2622C54.8247 10.5313 55.6789 9.55209 56.8247 8.8125C57.9705 8.0625 59.4497 7.6875 61.2622 7.6875C62.8872 7.6875 64.3091 8.02083 65.5278 8.6875C66.7466 9.34375 67.6945 10.3438 68.3716 11.6875C69.0486 13.0208 69.3872 14.7083 69.3872 16.75V32H65.6997V17C65.6997 15.1146 65.2101 13.6458 64.2309 12.5938C63.2518 11.5312 61.908 11 60.1997 11C59.0226 11 57.9705 11.2552 57.0434 11.7656C56.1268 12.276 55.4028 13.0208 54.8716 14C54.3403 14.9792 54.0747 16.1667 54.0747 17.5625Z" fill="white"/>
<path d="M79.028 32.5C77.028 32.5 75.2623 31.9948 73.7311 30.9844C72.1998 29.9635 71.0019 28.526 70.1373 26.6719C69.2728 24.8073 68.8405 22.6042 68.8405 20.0625C68.8405 17.5417 69.2728 15.3542 70.1373 13.5C71.0019 11.6458 72.2051 10.2135 73.7467 9.20312C75.2884 8.19271 77.0696 7.6875 79.0905 7.6875C80.653 7.6875 81.8873 7.94792 82.7936 8.46875C83.7103 8.97917 84.4082 9.5625 84.8873 10.2188C85.3769 10.8646 85.7571 11.3958 86.028 11.8125H86.3405V0H90.028V32H86.4655V28.3125H86.028C85.7571 28.75 85.3717 29.3021 84.8717 29.9688C84.3717 30.625 83.6582 31.2135 82.7311 31.7344C81.804 32.2448 80.5696 32.5 79.028 32.5ZM79.528 29.1875C81.0071 29.1875 82.2571 28.8021 83.278 28.0312C84.2988 27.25 85.0748 26.1719 85.6061 24.7969C86.1373 23.4115 86.403 21.8125 86.403 20C86.403 18.2083 86.1426 16.6406 85.6217 15.2969C85.1009 13.9427 84.3301 12.8906 83.3092 12.1406C82.2884 11.3802 81.028 11 79.528 11C77.9655 11 76.6634 11.401 75.6217 12.2031C74.5905 12.9948 73.8144 14.0729 73.2936 15.4375C72.7832 16.7917 72.528 18.3125 72.528 20C72.528 21.7083 72.7884 23.2604 73.3092 24.6562C73.8405 26.0417 74.6217 27.1458 75.653 27.9688C76.6946 28.7813 77.9863 29.1875 79.528 29.1875Z" fill="white"/>
<path d="M201 30.5C201 31.3284 200.328 32 199.5 32C198.672 32 198 31.3284 198 30.5C198 29.6716 198.672 29 199.5 29C200.328 29 201 29.6716 201 30.5Z" fill="#AC0000"/>
<path d="M160.5 3.75C160.5 4.7165 159.716 5.5 158.75 5.5C157.784 5.5 157 4.7165 157 3.75C157 2.7835 157.784 2 158.75 2C159.716 2 160.5 2.7835 160.5 3.75Z" fill="#AC0000"/>
</svg>
